<svg width="336" height="53" viewBox="0 0 336 53" fill="none" xmlns="http://www.w3.org/2000/svg">
<path d="M31.99 2.66005V12.25H11.97V22.61H26.95V31.92H11.97V51.8H-3.77744e-06V2.66005H31.99ZM50.2512 19.25C51.6512 17.1034 53.4012 15.4234 55.5012 14.21C57.6012 12.95 59.9346 12.32 62.5012 12.32V24.99H59.2112C56.2246 24.99 53.9846 25.6434 52.4912 26.95C50.9979 28.21 50.2512 30.45 50.2512 33.67V51.8H38.2812V12.74H50.2512V19.25ZM105.043 31.64C105.043 32.76 104.973 33.9267 104.833 35.14H77.7427C77.9293 37.5667 78.6993 39.4334 80.0527 40.74C81.4527 42 83.156 42.63 85.1627 42.63C88.1493 42.63 90.226 41.37 91.3927 38.85H104.133C103.479 41.4167 102.289 43.7267 100.563 45.78C98.8827 47.8334 96.7593 49.4434 94.1927 50.61C91.626 51.7767 88.756 52.36 85.5827 52.36C81.756 52.36 78.3493 51.5434 75.3627 49.91C72.376 48.2767 70.0427 45.9434 68.3627 42.91C66.6827 39.8767 65.8427 36.33 65.8427 32.27C65.8427 28.21 66.6593 24.6634 68.2927 21.63C69.9727 18.5967 72.306 16.2634 75.2927 14.63C78.2793 12.9967 81.7093 12.18 85.5827 12.18C89.3627 12.18 92.7227 12.9734 95.6627 14.56C98.6027 16.1467 100.889 18.41 102.523 21.35C104.203 24.29 105.043 27.72 105.043 31.64ZM92.7927 28.49C92.7927 26.4367 92.0927 24.8034 90.6927 23.59C89.2927 22.3767 87.5427 21.77 85.4427 21.77C83.436 21.77 81.7327 22.3534 80.3327 23.52C78.9793 24.6867 78.1393 26.3434 77.8127 28.49H92.7927ZM127.247 52.36C123.841 52.36 120.807 51.7767 118.147 50.61C115.487 49.4434 113.387 47.8567 111.847 45.85C110.307 43.7967 109.444 41.51 109.257 38.99H121.087C121.227 40.3434 121.857 41.44 122.977 42.28C124.097 43.12 125.474 43.54 127.107 43.54C128.601 43.54 129.744 43.26 130.537 42.7C131.377 42.0934 131.797 41.3234 131.797 40.39C131.797 39.27 131.214 38.4534 130.047 37.94C128.881 37.38 126.991 36.7734 124.377 36.12C121.577 35.4667 119.244 34.79 117.377 34.09C115.511 33.3434 113.901 32.2 112.547 30.66C111.194 29.0734 110.517 26.95 110.517 24.29C110.517 22.05 111.124 20.02 112.337 18.2C113.597 16.3334 115.417 14.8634 117.797 13.79C120.224 12.7167 123.094 12.18 126.407 12.18C131.307 12.18 135.157 13.3934 137.957 15.82C140.804 18.2467 142.437 21.4667 142.857 25.48H131.797C131.611 24.1267 131.004 23.0534 129.977 22.26C128.997 21.4667 127.691 21.07 126.057 21.07C124.657 21.07 123.584 21.35 122.837 21.91C122.091 22.4234 121.717 23.1467 121.717 24.08C121.717 25.2 122.301 26.04 123.467 26.6C124.681 27.16 126.547 27.72 129.067 28.28C131.961 29.0267 134.317 29.7734 136.137 30.52C137.957 31.22 139.544 32.3867 140.897 34.02C142.297 35.6067 143.021 37.7534 143.067 40.46C143.067 42.7467 142.414 44.8 141.107 46.62C139.847 48.3934 138.004 49.7934 135.577 50.82C133.197 51.8467 130.421 52.36 127.247 52.36ZM174.401 12.32C178.881 12.32 182.474 13.8134 185.181 16.8C187.887 19.74 189.241 23.8 189.241 28.98V51.8H177.341V30.59C177.341 27.9767 176.664 25.9467 175.311 24.5C173.957 23.0534 172.137 22.33 169.851 22.33C167.564 22.33 165.744 23.0534 164.391 24.5C163.037 25.9467 162.361 27.9767 162.361 30.59V51.8H150.391V4.81606e-05H162.361V17.99C163.574 16.2634 165.231 14.8867 167.331 13.86C169.431 12.8334 171.787 12.32 174.401 12.32Z" fill="#020202"/>
<path d="M225.279 51.8L206.449 30.03V51.8H198.469V3.15005H206.449V25.34L225.349 3.15005H235.359L214.219 27.51L235.709 51.8H225.279ZM240.105 32.34C240.105 28.4667 240.899 25.0367 242.485 22.05C244.119 19.0634 246.312 16.7534 249.065 15.12C251.865 13.44 254.945 12.6 258.305 12.6C261.339 12.6 263.975 13.2067 266.215 14.42C268.502 15.5867 270.322 17.0567 271.675 18.83V13.23H279.725V51.8H271.675V46.06C270.322 47.88 268.479 49.3967 266.145 50.61C263.812 51.8234 261.152 52.43 258.165 52.43C254.852 52.43 251.819 51.59 249.065 49.91C246.312 48.1834 244.119 45.8034 242.485 42.77C240.899 39.69 240.105 36.2134 240.105 32.34ZM271.675 32.48C271.675 29.82 271.115 27.51 269.995 25.55C268.922 23.59 267.499 22.0967 265.725 21.07C263.952 20.0434 262.039 19.53 259.985 19.53C257.932 19.53 256.019 20.0434 254.245 21.07C252.472 22.05 251.025 23.52 249.905 25.48C248.832 27.3934 248.295 29.68 248.295 32.34C248.295 35 248.832 37.3334 249.905 39.34C251.025 41.3467 252.472 42.8867 254.245 43.96C256.065 44.9867 257.979 45.5 259.985 45.5C262.039 45.5 263.952 44.9867 265.725 43.96C267.499 42.9334 268.922 41.44 269.995 39.48C271.115 37.4734 271.675 35.14 271.675 32.48ZM298.187 18.83C299.354 16.87 300.894 15.3534 302.807 14.28C304.767 13.16 307.077 12.6 309.737 12.6V20.86H307.707C304.58 20.86 302.2 21.6534 300.567 23.24C298.98 24.8267 298.187 27.58 298.187 31.5V51.8H290.207V13.23H298.187V18.83ZM326.382 19.74V41.09C326.382 42.5367 326.709 43.5867 327.362 44.24C328.062 44.8467 329.229 45.15 330.862 45.15H335.762V51.8H329.462C325.869 51.8 323.115 50.96 321.202 49.28C319.289 47.6 318.332 44.87 318.332 41.09V19.74H313.782V13.23H318.332V3.64005H326.382V13.23H335.762V19.74H326.382Z" fill="#96B800"/>
</svg>
